<?xml version="1.0" encoding="utf-8"?>
<!-- Generator: Adobe Illustrator 19.0.0, SVG Export Plug-In . SVG Version: 6.00 Build 0)  -->
<svg version="1.1" id="Layer_1" xmlns="http://www.w3.org/2000/svg" xmlns:xlink="http://www.w3.org/1999/xlink" x="0px" y="0px"
	 viewBox="0 0 165.3 40" style="enable-background:new 0 0 165.3 40;" xml:space="preserve">
<style type="text/css">
	.st0{fill:#0053F5;}
	.st1{fill:#C0E2FF;}
	.st2{fill:#13133B;}
</style>
<g id="XMLID_8_">
	<path id="XMLID_6_" class="st0" d="M23.8,0c-3.9,0-7.1,2.8-7.8,6.5c-0.1,0.5-0.1,3.7-0.1,3.7c0,0.6,0.4,4.1-3,7.5
		c-3.4,3.4-7.2,2.8-7.2,2.8v0c-1.4,0-2.9,0.5-4,1.6c-2.1,2.1-2.1,5.6,0,7.7c2.1,2.1,5.6,2.1,7.7,0c1.1-1.1,1.6-2.6,1.6-4l0,0
		c0,0-0.6-3.8,2.8-7.2c3.4-3.4,6.9-3,7.4-3c0,0,2.2,0.2,2.7,0.2c4.4,0,7.9-3.5,7.9-7.9S28.2,0,23.8,0z"/>
	<path id="XMLID_5_" class="st0" d="M39.6,27c-0.8-2.3-3.2-3.7-5.6-3.3c-0.3,0-2.2,0.7-2.2,0.7c-0.3,0.1-2.4,1.1-5.1-0.2
		c-2.8-1.3-3.2-3.7-3.2-3.7l0,0c-0.3-0.9-0.9-1.6-1.8-2.1c-1.7-0.8-3.8-0.1-4.6,1.6c-0.8,1.7-0.1,3.8,1.6,4.6
		c0.9,0.4,1.9,0.4,2.7,0.1l0,0c0,0,2.2-1.2,4.9,0.1c2.8,1.3,3.2,3.5,3.4,3.8c0,0,0.3,1.4,0.4,1.6c0.9,2.6,3.8,4,6.4,3.1
		C39.1,32.5,40.5,29.6,39.6,27z"/>
	<circle id="XMLID_4_" class="st0" cx="17.2" cy="31.3" r="3.5"/>
	<g id="XMLID_9_">
		<g id="XMLID_14_">
			<path id="XMLID_3_" class="st1" d="M38.8,22.3C38.8,22.3,38.8,22.3,38.8,22.3c-0.6,0-1.1-0.5-1.1-1.1c0.1-4.2-1.3-8.3-3.9-11.5
				c-0.4-0.5-0.3-1.1,0.1-1.5c0.5-0.4,1.1-0.3,1.5,0.1c3,3.6,4.6,8.2,4.4,12.9C39.8,21.9,39.4,22.3,38.8,22.3z"/>
		</g>
		<g id="XMLID_12_">
			<path id="XMLID_2_" class="st1" d="M2.9,17.2c-0.1,0-0.2,0-0.3,0c-0.6-0.1-0.9-0.7-0.8-1.3C3.3,10,7.6,5.1,13.2,2.8
				c0.5-0.2,1.2,0,1.4,0.6c0.2,0.5,0,1.2-0.6,1.4C9,6.9,5.2,11.2,3.9,16.4C3.8,16.9,3.3,17.2,2.9,17.2z"/>
		</g>
		<g id="XMLID_10_">
			<path id="XMLID_1_" class="st1" d="M20.6,40c-0.2,0-0.4,0-0.6,0c-4.4-0.1-8.6-1.8-11.9-4.6c-0.5-0.4-0.5-1.1-0.1-1.5
				c0.4-0.5,1.1-0.5,1.5-0.1c3,2.6,6.6,4,10.6,4.1c3.2,0.1,6.4-0.7,9.2-2.3c0.5-0.3,1.2-0.1,1.5,0.4c0.3,0.5,0.1,1.2-0.4,1.5
				C27.3,39.1,24,40,20.6,40z"/>
		</g>
	</g>
</g>
<g id="XMLID_26_">
	<path id="XMLID_27_" class="st2" d="M64.1,7.2v4.5H57v19h-5.3v-19h-7.1V7.2H64.1z"/>
	<path id="XMLID_29_" class="st2" d="M63.7,22c0-1.6,0.2-3,0.7-4.2c0.5-1.2,1.1-2.2,1.9-3c0.8-0.8,1.7-1.4,2.7-1.8
		c1-0.4,2.1-0.6,3.2-0.6c2.5,0,4.5,0.8,6,2.3c1.5,1.6,2.2,3.8,2.2,6.9c0,0.3,0,0.6,0,1c0,0.4,0,0.7-0.1,0.9H68.9
		c0.1,1,0.6,1.9,1.5,2.5s2,0.9,3.5,0.9c0.9,0,1.8-0.1,2.7-0.3c0.9-0.2,1.6-0.4,2.2-0.6l0.7,4.1c-0.3,0.1-0.6,0.3-1.1,0.4
		c-0.5,0.1-1,0.3-1.5,0.4c-0.6,0.1-1.2,0.2-1.8,0.3c-0.6,0.1-1.3,0.1-1.9,0.1c-1.6,0-3-0.2-4.2-0.7c-1.2-0.5-2.2-1.1-3-2
		c-0.8-0.8-1.4-1.8-1.7-2.9S63.7,23.3,63.7,22z M75.6,20.1c0-0.4-0.1-0.8-0.2-1.3c-0.1-0.4-0.3-0.8-0.6-1.1c-0.3-0.3-0.6-0.6-1-0.8
		c-0.4-0.2-0.9-0.3-1.5-0.3c-0.6,0-1.1,0.1-1.5,0.3c-0.4,0.2-0.7,0.4-1,0.8s-0.5,0.7-0.6,1.1c-0.1,0.4-0.3,0.8-0.3,1.3H75.6z"/>
	<path id="XMLID_32_" class="st2" d="M83.6,21.9c0-1.3,0.2-2.5,0.6-3.7c0.4-1.1,1-2.1,1.8-3c0.8-0.9,1.8-1.5,2.9-2
		c1.1-0.5,2.4-0.7,3.9-0.7c1,0,1.8,0.1,2.6,0.3c0.8,0.2,1.6,0.4,2.3,0.7l-1.1,4c-0.5-0.2-1-0.3-1.6-0.5c-0.6-0.1-1.2-0.2-1.9-0.2
		c-1.5,0-2.6,0.5-3.3,1.4c-0.7,0.9-1.1,2.2-1.1,3.7c0,1.6,0.3,2.9,1,3.7c0.7,0.9,1.9,1.3,3.6,1.3c0.6,0,1.3-0.1,2-0.2
		c0.7-0.1,1.3-0.3,1.9-0.5l0.7,4.1c-0.6,0.3-1.3,0.5-2.2,0.6c-0.9,0.2-1.9,0.3-2.9,0.3c-1.6,0-3-0.2-4.2-0.7s-2.1-1.2-2.9-2
		c-0.8-0.8-1.3-1.8-1.7-3C83.8,24.4,83.6,23.2,83.6,21.9z"/>
	<path id="XMLID_34_" class="st2" d="M101.4,30.8V5.2l5.1-0.8V13c0.3-0.1,0.8-0.2,1.3-0.3c0.5-0.1,1-0.2,1.5-0.2
		c1.5,0,2.7,0.2,3.6,0.6c1,0.4,1.7,1,2.3,1.7s1,1.6,1.2,2.6s0.4,2.1,0.4,3.3v10.1h-5.1v-9.5c0-1.6-0.2-2.8-0.6-3.5
		c-0.4-0.7-1.2-1-2.3-1c-0.5,0-0.9,0-1.3,0.1c-0.4,0.1-0.8,0.2-1.1,0.3v13.6H101.4z"/>
	<path id="XMLID_36_" class="st2" d="M126.5,19.3c0.5-0.5,1-1.1,1.5-1.7s1-1.2,1.5-1.7c0.5-0.6,1-1.1,1.4-1.6c0.4-0.5,0.8-1,1.1-1.4
		h6c-1.2,1.4-2.4,2.7-3.5,4c-1.1,1.3-2.4,2.5-3.8,3.9c0.7,0.6,1.4,1.3,2.1,2.2c0.7,0.9,1.4,1.7,2.1,2.6c0.7,0.9,1.3,1.8,1.9,2.7
		s1,1.7,1.4,2.5h-5.8c-0.4-0.6-0.8-1.2-1.2-2s-1-1.4-1.5-2.1s-1.1-1.4-1.6-2.1c-0.6-0.7-1.1-1.2-1.7-1.7v7.8h-5.1V5.2l5.1-0.8V19.3z
		"/>
	<path id="XMLID_38_" class="st2" d="M146.7,7.8c0,0.9-0.3,1.7-0.9,2.2c-0.6,0.5-1.3,0.8-2.1,0.8c-0.8,0-1.5-0.3-2.1-0.8
		c-0.6-0.5-0.9-1.3-0.9-2.2s0.3-1.7,0.9-2.2c0.6-0.5,1.3-0.8,2.1-0.8c0.8,0,1.5,0.3,2.1,0.8C146.4,6.1,146.7,6.8,146.7,7.8z
		 M146.2,30.8h-5.1V12.9h5.1V30.8z"/>
	<path id="XMLID_41_" class="st2" d="M150.8,8.5l5.1-0.8v5.3h6.1v4.2h-6.1v6.3c0,1.1,0.2,1.9,0.6,2.5c0.4,0.6,1.1,1,2.3,1
		c0.5,0,1.1-0.1,1.7-0.2c0.6-0.1,1.1-0.2,1.6-0.4l0.7,3.9c-0.6,0.2-1.3,0.5-2,0.6c-0.7,0.2-1.7,0.3-2.8,0.3c-1.4,0-2.5-0.2-3.4-0.6
		s-1.6-0.9-2.2-1.6s-0.9-1.5-1.1-2.4c-0.2-1-0.3-2-0.3-3.2V8.5z"/>
</g>
</svg>
